<svg width="14" height="10" viewBox="0 0 14 10" fill="none" xmlns="http://www.w3.org/2000/svg">
<path d="M3.96261 5.5C3.76546 5.5 3.57638 5.44732 3.43697 5.35355C3.29756 5.25979 3.21924 5.13261 3.21924 5C3.21924 4.86739 3.29756 4.74021 3.43697 4.64645C3.57638 4.55268 3.76546 4.5 3.96261 4.5C4.15976 4.5 4.34884 4.55268 4.48825 4.64645C4.62766 4.74021 4.70598 4.86739 4.70598 5C4.70598 5.13261 4.62766 5.25979 4.48825 5.35355C4.34884 5.44732 4.15976 5.5 3.96261 5.5ZM3.96261 7.5C3.76546 7.5 3.57638 7.44732 3.43697 7.35355C3.29756 7.25979 3.21924 7.13261 3.21924 7C3.21924 6.86739 3.29756 6.74021 3.43697 6.64645C3.57638 6.55268 3.76546 6.5 3.96261 6.5C4.15976 6.5 4.34884 6.55268 4.48825 6.64645C4.62766 6.74021 4.70598 6.86739 4.70598 7C4.70598 7.13261 4.62766 7.25979 4.48825 7.35355C4.34884 7.44732 4.15976 7.5 3.96261 7.5ZM6.19272 7C6.19272 7.13261 6.27104 7.25979 6.41045 7.35355C6.54986 7.44732 6.73894 7.5 6.93609 7.5C7.13325 7.5 7.32233 7.44732 7.46174 7.35355C7.60115 7.25979 7.67947 7.13261 7.67947 7C7.67947 6.86739 7.60115 6.74021 7.46174 6.64645C7.32233 6.55268 7.13325 6.5 6.93609 6.5C6.73894 6.5 6.54986 6.55268 6.41045 6.64645C6.27104 6.74021 6.19272 6.86739 6.19272 7ZM9.90958 7.5C9.71243 7.5 9.52335 7.44732 9.38394 7.35355C9.24453 7.25979 9.16621 7.13261 9.16621 7C9.16621 6.86739 9.24453 6.74021 9.38394 6.64645C9.52335 6.55268 9.71243 6.5 9.90958 6.5C10.1067 6.5 10.2958 6.55268 10.4352 6.64645C10.5746 6.74021 10.653 6.86739 10.653 7C10.653 7.13261 10.5746 7.25979 10.4352 7.35355C10.2958 7.44732 10.1067 7.5 9.90958 7.5ZM6.19272 5C6.19272 5.13261 6.27104 5.25979 6.41045 5.35355C6.54986 5.44732 6.73894 5.5 6.93609 5.5C7.13325 5.5 7.32233 5.44732 7.46174 5.35355C7.60115 5.25979 7.67947 5.13261 7.67947 5C7.67947 4.86739 7.60115 4.74021 7.46174 4.64645C7.32233 4.55268 7.13325 4.5 6.93609 4.5C6.73894 4.5 6.54986 4.55268 6.41045 4.64645C6.27104 4.74021 6.19272 4.86739 6.19272 5ZM9.90958 5.5C9.71243 5.5 9.52335 5.44732 9.38394 5.35355C9.24453 5.25979 9.16621 5.13261 9.16621 5C9.16621 4.86739 9.24453 4.74021 9.38394 4.64645C9.52335 4.55268 9.71243 4.5 9.90958 4.5C10.1067 4.5 10.2958 4.55268 10.4352 4.64645C10.5746 4.74021 10.653 4.86739 10.653 5C10.653 5.13261 10.5746 5.25979 10.4352 5.35355C10.2958 5.44732 10.1067 5.5 9.90958 5.5ZM3.96261 2.5C3.76546 2.5 3.57638 2.55268 3.43697 2.64645C3.29756 2.74021 3.21924 2.86739 3.21924 3C3.21924 3.13261 3.29756 3.25979 3.43697 3.35355C3.57638 3.44732 3.76546 3.5 3.96261 3.5H9.90958C10.1067 3.5 10.2958 3.44732 10.4352 3.35355C10.5746 3.25979 10.653 3.13261 10.653 3C10.653 2.86739 10.5746 2.74021 10.4352 2.64645C10.2958 2.55268 10.1067 2.5 9.90958 2.5H3.96261Z" fill="#A7A7A7"/>
<path fill-rule="evenodd" clip-rule="evenodd" d="M2.47584 0.5C1.88438 0.5 1.31714 0.658035 0.898913 0.93934C0.480685 1.22064 0.245728 1.60218 0.245728 2V8C0.245728 8.39782 0.480685 8.77936 0.898913 9.06066C1.31714 9.34196 1.88438 9.5 2.47584 9.5H11.3963C11.9878 9.5 12.555 9.34196 12.9732 9.06066C13.3915 8.77936 13.6264 8.39782 13.6264 8V2C13.6264 1.60218 13.3915 1.22064 12.9732 0.93934C12.555 0.658035 11.9878 0.5 11.3963 0.5H2.47584ZM11.3963 1.5H2.47584C2.27869 1.5 2.08961 1.55268 1.9502 1.64645C1.81079 1.74021 1.73247 1.86739 1.73247 2V8C1.73247 8.13261 1.81079 8.25979 1.9502 8.35355C2.08961 8.44732 2.27869 8.5 2.47584 8.5H11.3963C11.5935 8.5 11.7825 8.44732 11.9219 8.35355C12.0613 8.25979 12.1397 8.13261 12.1397 8V2C12.1397 1.86739 12.0613 1.74021 11.9219 1.64645C11.7825 1.55268 11.5935 1.5 11.3963 1.5Z" fill="#A7A7A7"/>
</svg>
