<svg width="140" height="79" viewBox="0 0 140 79" fill="none" xmlns="http://www.w3.org/2000/svg">
<g clip-path="url(#clip0_2_187)">
<path d="M0 0H140C140 1.7736 138.562 3.21138 136.789 3.21138H3.21138C1.43778 3.21138 0 1.7736 0 0ZM0 0C1.78671 0 3.23512 1.44841 3.23512 3.23512V75.7649C3.23512 77.5516 1.78671 79 0 79V0ZM140 79H0C0 77.2264 1.43778 75.7886 3.21138 75.7886H136.789C138.562 75.7886 140 77.2264 140 79ZM140 79C138.213 79 136.765 77.5516 136.765 75.7649V3.23512C136.765 1.44841 138.213 0 140 0V79Z" fill="#42446E"/>
<path d="M22.4922 50.9406C22.3783 51.1202 22.2102 51.2736 21.988 51.4009C21.3061 51.7914 20.6529 52.3245 20.5547 53.1042C20.4157 54.2078 21.3336 55.1767 22.4443 55.1165C22.4997 55.1135 22.5561 55.1104 22.6135 55.1073C23.8105 55.0431 24.9428 55.011 26.0104 55.011C26.8192 55.011 27.8625 55.0431 29.1404 55.1073C30.5556 55.1785 31.8244 54.1813 32.0656 52.785L32.2088 51.9553C32.2174 51.9058 32.2135 51.855 32.1975 51.8073C32.1545 51.6792 32.0317 51.5951 31.8967 51.6012L31.0572 51.639C30.5719 51.639 30.2323 51.5026 30.0381 51.2296C29.844 50.9566 29.747 50.4669 29.747 49.7604C29.747 41.2181 29.8845 34.3056 30.1595 29.0229C30.3909 24.5761 30.7084 21.8189 31.1117 20.7511C31.2169 20.4728 31.2828 20.149 31.1804 19.8696C31.0531 19.522 30.6948 19.3159 30.3296 19.3762C29.4889 19.5149 28.1624 19.7198 26.3501 19.9909C24.7453 20.2309 23.2077 20.4487 21.7373 20.6443C20.5464 20.8027 19.6137 21.7524 19.4892 22.9473L19.4369 23.4488C19.4199 23.6128 19.4563 23.7783 19.4836 23.9409C19.5092 24.0936 19.654 24.1817 19.8089 24.1817H20.5269C21.0445 24.1817 21.4651 24.2138 21.7886 24.2781C22.2091 24.4065 22.5003 24.6715 22.6621 25.0729C22.8238 25.4743 22.9047 26.0764 22.9047 26.8793V48.5561C22.9047 49.7122 22.7672 50.507 22.4922 50.9406ZM30.8849 41.9989C30.5873 42.3155 30.4002 42.72 30.3519 43.1519C30.3056 43.5652 30.3888 43.9828 30.5898 44.3469L34.6967 51.7836C35.4085 53.0681 36.0797 53.9834 36.7106 54.5293C37.3414 55.0752 38.1421 55.4285 39.1127 55.589C39.5009 55.6533 39.9053 55.6854 40.3258 55.6854L41.4905 55.6372C42.0405 55.6051 42.7037 55.5248 43.4801 55.3964C44.369 55.2493 45.0673 54.5386 45.1872 53.6456L45.3459 52.464C45.3633 52.3345 45.3412 52.2028 45.2824 52.0862C45.1869 51.8966 45.0042 51.7683 44.7961 51.7263C44.0223 51.5701 43.3168 51.26 42.6794 50.7961C41.9515 50.2662 41.2802 49.4714 40.6655 48.4116L37.5821 43.1879C37.255 42.6338 37.3458 41.9283 37.8024 41.475C39.1935 40.062 40.4229 38.9059 41.4905 38.0067C41.9739 37.5996 42.464 37.2352 42.9606 36.9136C44.0413 36.214 44.8932 35.1521 45.061 33.8757L45.2139 32.7119C45.2224 32.647 45.2086 32.5811 45.1747 32.5251C45.1177 32.4306 45.012 32.3771 44.902 32.3852C44.4996 32.4147 43.8072 32.45 42.825 32.4912C41.6765 32.5393 40.6008 32.5634 39.5979 32.5634C38.1421 32.5634 36.8157 32.5474 35.6187 32.5153C35.5086 32.5123 35.402 32.5095 35.2987 32.5068C34.1157 32.4761 33.1102 33.3322 32.9334 34.5023L32.8206 35.2487C32.81 35.3189 32.8243 35.3906 32.861 35.4514C32.9161 35.5425 33.0149 35.5979 33.1213 35.5991C33.9367 35.6078 34.5185 35.6797 34.8666 35.815C35.2386 35.9595 35.4246 36.2084 35.4246 36.5616C35.4246 36.7864 35.3599 37.0192 35.2305 37.2601C35.1011 37.5009 34.8585 37.798 34.5026 38.1512L30.8849 41.9989ZM53.0587 51.9207C52.2916 52.0844 51.6665 52.6772 51.578 53.4566C51.4571 54.5218 52.3612 55.4355 53.4294 55.3445C53.8453 55.309 54.3139 55.2701 54.8354 55.2278C56.6147 55.0833 58.1837 55.011 59.5425 55.011C60.5777 55.011 61.9041 55.0431 63.5217 55.1073C63.7677 55.1171 64.0009 55.1265 64.2215 55.1355C65.6454 55.1938 66.9057 54.1863 67.1446 52.7814L67.3301 51.6906C67.3461 51.5966 67.321 51.5002 67.2612 51.4259C67.1979 51.3474 67.1027 51.3018 67.0021 51.3063C66.8504 51.3131 66.6285 51.3277 66.3362 51.35C65.9157 51.3821 65.4304 51.3982 64.8804 51.3982C64.1364 51.3982 63.6106 51.1573 63.3033 50.6756C62.996 50.1939 62.8423 49.375 62.8423 48.2189C62.8423 42.9201 63.0526 38.7453 63.4732 35.6945C63.6026 34.7632 63.8128 34.0326 64.104 33.5028C64.2747 33.1922 64.4898 32.8954 64.7493 32.6124C65.0913 32.2396 65.2464 31.7148 65.0691 31.2409C64.8741 30.7197 64.3417 30.4054 63.7912 30.4864L63.4246 30.5403C62.8747 30.6045 62.1144 30.7089 61.1439 30.8534C60.1733 30.9979 58.9116 31.1665 57.3588 31.3592C56.1813 31.5165 54.8374 31.6739 53.327 31.8312C52.1435 31.9545 51.2008 32.8825 51.0725 34.0656L50.9773 34.9431C50.962 35.0842 51.0067 35.2253 51.1006 35.3318C51.2197 35.4669 51.4016 35.5287 51.58 35.5045C51.7439 35.4821 51.9555 35.4572 52.2149 35.4296C52.6678 35.3814 53.1531 35.3573 53.6707 35.3573C54.5766 35.3573 55.1993 35.542 55.539 35.9113C55.8787 36.2806 56.0485 37.0112 56.0485 38.1031V48.1707C56.0485 49.5195 55.7331 50.4749 55.1023 51.0369C54.6617 51.4294 53.9805 51.724 53.0587 51.9207ZM76.5511 52.4098C78.3466 54.5293 80.8619 55.589 84.0971 55.589C86.394 55.589 88.3998 55.0511 90.1144 53.9753C91.829 52.8995 93.1473 51.358 94.0693 49.3509C94.9913 47.3438 95.4524 44.9915 95.4524 42.2939C95.4524 38.5366 94.5546 35.6062 92.7591 33.5028C90.9636 31.3993 88.4807 30.3476 85.3102 30.3476C83.0133 30.3476 80.9994 30.8855 79.2686 31.9613C77.5379 33.0371 76.2034 34.5705 75.2652 36.5616C74.327 38.5527 73.8579 40.8809 73.8579 43.5464C73.8579 47.3358 74.7557 50.2903 76.5511 52.4098ZM89.4108 46.8461C88.3594 47.665 86.8469 48.0744 84.8735 48.0744C82.8354 48.0744 81.234 47.6168 80.0693 46.7015C78.9047 45.7863 78.3224 44.5258 78.3224 42.9201C78.3224 41.3787 78.84 40.1824 79.8752 39.3314C80.9105 38.4804 82.3986 38.0549 84.3397 38.0549C86.4425 38.0549 88.0763 38.5205 89.2409 39.4518C90.4056 40.3832 90.9879 41.6677 90.9879 43.3055C90.9879 44.847 90.4622 46.0272 89.4108 46.8461ZM102.198 58.5034C102.845 59.3223 103.88 59.7317 105.303 59.7317C107.697 59.7317 110.067 59.2099 112.412 58.1662C114.758 57.1225 116.667 55.7416 118.139 54.0235C119.611 52.3054 120.347 50.5311 120.347 48.7006C120.347 46.549 119.425 44.855 117.581 43.6186C116.025 42.5754 113.72 41.7207 110.667 41.0547C109.673 40.838 108.981 39.9191 109.093 38.9083C109.201 37.929 110.028 37.1857 111.013 37.2007C112.487 37.2232 113.867 37.2751 115.154 37.3564C116.378 37.4337 117.296 37.4921 117.908 37.5314C118.315 37.5576 118.714 37.4012 118.994 37.1043C119.18 36.9075 119.303 36.66 119.349 36.3932L120.242 31.1396C120.418 30.1009 119.572 29.1728 118.522 29.253C117.865 29.3032 117.354 29.7839 116.957 30.3096C116.805 30.5106 116.633 30.6677 116.44 30.7811C116.003 31.038 115.316 31.1825 114.378 31.2147L105.188 31.5421C105.013 31.5484 104.846 31.6205 104.721 31.7441C104.596 31.8682 104.523 32.0345 104.515 32.2105C104.473 33.1087 104.371 34.7919 104.211 37.2601C104.041 39.8893 103.819 42.5259 103.545 45.1698C103.521 45.3947 103.589 45.6196 103.733 45.7941C103.869 45.9593 104.063 46.0663 104.275 46.0947C107.334 46.5048 109.489 47.0121 110.738 47.6168C112.032 48.243 112.679 49.1181 112.679 50.2421C112.679 51.3661 112.057 52.2813 110.811 52.9878C109.566 53.6943 108.005 54.0476 106.128 54.0476C104.783 54.0476 103.589 53.8875 102.545 53.5673C102.124 53.4384 101.659 53.5342 101.356 53.8527C101.15 54.0691 101.042 54.3621 101.068 54.6597C101.224 56.4668 101.601 57.7481 102.198 58.5034Z" fill="#42446E"/>
</g>
<defs>
<clipPath id="clip0_2_187">
<rect width="140" height="79" fill="white"/>
</clipPath>
</defs>
</svg>
